<svg xmlns="http://www.w3.org/2000/svg" version="1.1" xmlns:xlink="http://www.w3.org/1999/xlink" xmlns:svgjs="http://svgjs.dev/svgjs" width="1000" height="255" viewBox="0 0 1000 255"><g transform="matrix(1,0,0,1,-0.6060606060606233,0.3998484178941055)"><svg viewBox="0 0 396 101" data-background-color="#8b3c7f" preserveAspectRatio="xMidYMid meet" height="255" width="1000" xmlns="http://www.w3.org/2000/svg" xmlns:xlink="http://www.w3.org/1999/xlink"><g id="tight-bounds" transform="matrix(1,0,0,1,0.2400000000000091,-0.15837133414629534)"><svg viewBox="0 0 395.52 101.31674266829259" height="101.31674266829259" width="395.52"><g><svg viewBox="0 0 519.2770824526024 133.01846312801393" height="101.31674266829259" width="395.52"><g><rect width="3.951366695945348" height="133.01846312801393" x="109.46182388245455" y="0" fill="#ffffff" opacity="1" stroke-width="0" stroke="transparent" fill-opacity="1" class="rect-o-0" data-fill-palette-color="primary" rx="1%" id="o-0" data-palette-color="#ffffff"></rect></g><g transform="matrix(1,0,0,1,123.75708245260239,0.33089169932341633)"><svg viewBox="0 0 395.52 132.3566797293671" height="132.3566797293671" width="395.52"><g id="textblocktransform"><svg viewBox="0 0 395.52 132.3566797293671" height="132.3566797293671" width="395.52" id="textblock"><g><svg viewBox="0 0 395.52 94.93453687557697" height="94.93453687557697" width="395.52"><g transform="matrix(1,0,0,1,0,0)"><svg width="395.52" viewBox="1.433334231376648 -35.5 324.9667053222656 75.00192260742188" height="94.93453687557697" data-palette-color="#ffffff"><svg></svg><svg></svg><g class="wordmark-text-0" data-fill-palette-color="primary" id="text-0"><path xmlns="http://www.w3.org/2000/svg" d="M14.35 0.5v0c-2.533 0.033-4.733-0.367-6.6-1.2-1.867-0.833-3.65-2.083-5.35-3.75v0c-0.167-0.133-0.307-0.3-0.42-0.5-0.12-0.2-0.18-0.433-0.18-0.7v0c0-0.4 0.157-0.767 0.47-1.1 0.32-0.333 0.68-0.5 1.08-0.5v0c0.4 0 0.767 0.167 1.1 0.5v0c1.3 1.4 2.777 2.467 4.43 3.2 1.647 0.733 3.42 1.1 5.32 1.1v0c1.6 0 3.027-0.25 4.28-0.75 1.247-0.5 2.237-1.217 2.97-2.15 0.733-0.933 1.1-2.017 1.1-3.25v0c0-1.533-0.417-2.777-1.25-3.73-0.833-0.947-1.933-1.73-3.3-2.35-1.367-0.613-2.883-1.17-4.55-1.67v0c-1.367-0.4-2.667-0.86-3.9-1.38-1.233-0.513-2.333-1.147-3.3-1.9-0.967-0.747-1.717-1.67-2.25-2.77-0.533-1.1-0.8-2.433-0.8-4v0c0-1.767 0.467-3.333 1.4-4.7 0.933-1.367 2.26-2.443 3.98-3.23 1.713-0.78 3.703-1.17 5.97-1.17v0c1.967 0 3.86 0.333 5.68 1 1.813 0.667 3.253 1.65 4.32 2.95v0c0.5 0.533 0.75 1.017 0.75 1.45v0c0 0.333-0.167 0.667-0.5 1-0.333 0.333-0.7 0.5-1.1 0.5v0c-0.333 0-0.617-0.117-0.85-0.35v0c-0.567-0.7-1.283-1.327-2.15-1.88-0.867-0.547-1.827-0.97-2.88-1.27-1.047-0.3-2.137-0.45-3.27-0.45v0c-1.567 0-2.973 0.24-4.22 0.72-1.253 0.487-2.237 1.18-2.95 2.08-0.72 0.9-1.08 1.983-1.08 3.25v0c0 1.4 0.4 2.55 1.2 3.45 0.8 0.9 1.85 1.64 3.15 2.22 1.3 0.587 2.683 1.13 4.15 1.63v0c1.433 0.4 2.81 0.86 4.13 1.38 1.313 0.513 2.48 1.153 3.5 1.92 1.013 0.767 1.813 1.733 2.4 2.9 0.58 1.167 0.87 2.633 0.87 4.4v0c0 1.7-0.483 3.233-1.45 4.6-0.967 1.367-2.29 2.45-3.97 3.25-1.687 0.8-3.663 1.217-5.93 1.25zM35.95-33.45v31.9c-0.033 0.433-0.207 0.8-0.52 1.1-0.32 0.3-0.68 0.45-1.08 0.45v0c-0.467 0-0.84-0.15-1.12-0.45-0.287-0.3-0.43-0.667-0.43-1.1v0-31.9c0-0.433 0.15-0.8 0.45-1.1 0.3-0.3 0.683-0.45 1.15-0.45v0c0.4 0 0.76 0.15 1.08 0.45 0.313 0.3 0.47 0.667 0.47 1.1zM46.8-35h12.75c2.467 0 4.627 0.467 6.48 1.4 1.847 0.933 3.37 2.223 4.57 3.87 1.2 1.653 2.093 3.53 2.68 5.63 0.58 2.1 0.87 4.3 0.87 6.6v0c0 3.2-0.523 6.127-1.57 8.78-1.053 2.647-2.653 4.76-4.8 6.34-2.153 1.587-4.897 2.38-8.23 2.38v0h-12.75c-0.4 0-0.75-0.15-1.05-0.45-0.3-0.3-0.45-0.65-0.45-1.05v0-32c0-0.4 0.15-0.75 0.45-1.05 0.3-0.3 0.65-0.45 1.05-0.45zM48.15-2.95h10.9c2.833 0 5.117-0.65 6.85-1.95 1.733-1.3 3.007-3.06 3.82-5.28 0.82-2.213 1.23-4.653 1.23-7.32v0c0-1.933-0.223-3.777-0.67-5.53-0.453-1.747-1.153-3.297-2.1-4.65-0.953-1.347-2.19-2.413-3.71-3.2-1.513-0.78-3.32-1.17-5.42-1.17v0h-10.95l0.35-0.45v30.05zM106.85-35v0c0.433 0 0.777 0.133 1.03 0.4 0.247 0.267 0.37 0.6 0.37 1v0 32c0 0.5-0.157 0.89-0.47 1.17-0.32 0.287-0.68 0.43-1.08 0.43v0c-0.2 0-0.417-0.043-0.65-0.13-0.233-0.08-0.417-0.203-0.55-0.37v0l-22.3-30.05 0.85-0.45v29.65c0 0.367-0.133 0.683-0.4 0.95-0.267 0.267-0.6 0.4-1 0.4v0c-0.433 0-0.773-0.133-1.02-0.4-0.253-0.267-0.38-0.583-0.38-0.95v0-32.15c0-0.5 0.15-0.877 0.45-1.13 0.3-0.247 0.633-0.37 1-0.37v0c0.2 0 0.417 0.04 0.65 0.12 0.233 0.087 0.417 0.23 0.55 0.43v0l22.05 29.7-0.5 0.9v-29.75c0-0.4 0.143-0.733 0.43-1 0.28-0.267 0.603-0.4 0.97-0.4zM119.15-35v0h18.35c0.4 0 0.75 0.14 1.05 0.42 0.3 0.287 0.45 0.647 0.45 1.08v0c0 0.433-0.15 0.783-0.45 1.05-0.3 0.267-0.65 0.4-1.05 0.4v0h-17.2l0.5-0.85v14.05l-0.55-0.65h15c0.4 0 0.75 0.15 1.05 0.45 0.3 0.3 0.45 0.65 0.45 1.05v0c0 0.433-0.15 0.783-0.45 1.05-0.3 0.267-0.65 0.4-1.05 0.4v0h-14.9l0.45-0.5v14.4l-0.25-0.3h16.95c0.4 0 0.75 0.15 1.05 0.45 0.3 0.3 0.45 0.65 0.45 1.05v0c0 0.433-0.15 0.783-0.45 1.05-0.3 0.267-0.65 0.4-1.05 0.4v0h-18.35c-0.4 0-0.75-0.15-1.05-0.45-0.3-0.3-0.45-0.65-0.45-1.05v0-32c0-0.4 0.15-0.75 0.45-1.05 0.3-0.3 0.65-0.45 1.05-0.45zM166.9-35.2v0c0.433 0 0.793 0.157 1.08 0.47 0.28 0.32 0.42 0.663 0.42 1.03v0c0 0.167-0.023 0.323-0.07 0.47-0.053 0.153-0.13 0.313-0.23 0.48v0l-11.75 16.15 0.6-1.95v17.05c0 0.4-0.15 0.75-0.45 1.05-0.3 0.3-0.667 0.45-1.1 0.45v0c-0.433 0-0.79-0.15-1.07-0.45-0.287-0.3-0.43-0.65-0.43-1.05v0-16.7l0.25 1.2-11.45-15.65c-0.133-0.167-0.233-0.343-0.3-0.53-0.067-0.18-0.1-0.353-0.1-0.52v0c0-0.433 0.177-0.79 0.53-1.07 0.347-0.287 0.703-0.43 1.07-0.43v0c0.5 0 0.917 0.233 1.25 0.7v0l10.75 14.65-0.75-0.1 10.45-14.55c0.333-0.467 0.767-0.7 1.3-0.7z" fill="#ffffff" fill-rule="nonzero" stroke="none" stroke-width="1" stroke-linecap="butt" stroke-linejoin="miter" stroke-miterlimit="10" stroke-dasharray="" stroke-dashoffset="0" font-family="none" font-weight="none" font-size="none" text-anchor="none" style="mix-blend-mode: normal" data-fill-palette-color="primary" opacity="1"></path><path xmlns="http://www.w3.org/2000/svg" d="M15.5 7.65l0.9 0.2-12.15 30.2c-0.133 0.333-0.317 0.583-0.55 0.75-0.233 0.167-0.5 0.25-0.8 0.25v0c-0.467 0-0.817-0.127-1.05-0.38-0.233-0.247-0.367-0.553-0.4-0.92v0c-0.033-0.167-0.017-0.367 0.05-0.6v0l13.2-32.3c0.167-0.367 0.377-0.627 0.63-0.78 0.247-0.147 0.537-0.22 0.87-0.22v0c0.333 0 0.623 0.09 0.87 0.27 0.253 0.187 0.447 0.43 0.58 0.73v0l13.15 32.15c0.067 0.2 0.1 0.4 0.1 0.6v0c0 0.467-0.15 0.823-0.45 1.07-0.3 0.253-0.65 0.38-1.05 0.38v0c-0.333 0-0.623-0.093-0.87-0.28-0.253-0.18-0.447-0.42-0.58-0.72v0zM24.5 28.9h-17.35l1.25-2.95h15.5zM52.5 39.5v0c-2.567 0-4.95-0.45-7.15-1.35-2.2-0.9-4.107-2.16-5.72-3.78-1.62-1.613-2.88-3.52-3.78-5.72-0.9-2.2-1.35-4.583-1.35-7.15v0c0-2.567 0.45-4.95 1.35-7.15 0.9-2.2 2.16-4.11 3.78-5.73 1.613-1.613 3.52-2.87 5.72-3.77 2.2-0.9 4.583-1.35 7.15-1.35v0c1.767 0 3.477 0.207 5.13 0.62 1.647 0.42 3.12 1.047 4.42 1.88v0c0.233 0.167 0.41 0.357 0.53 0.57 0.113 0.22 0.17 0.447 0.17 0.68v0c0 0.467-0.15 0.84-0.45 1.12-0.3 0.287-0.617 0.43-0.95 0.43v0c-0.167 0-0.323-0.027-0.47-0.08-0.153-0.047-0.297-0.103-0.43-0.17v0c-1.133-0.633-2.367-1.133-3.7-1.5-1.333-0.367-2.75-0.55-4.25-0.55v0c-2.867 0-5.417 0.65-7.65 1.95-2.233 1.3-3.983 3.083-5.25 5.35-1.267 2.267-1.9 4.833-1.9 7.7v0c0 2.867 0.633 5.433 1.9 7.7 1.267 2.267 3.017 4.05 5.25 5.35 2.233 1.3 4.783 1.95 7.65 1.95v0c1.5 0 3.01-0.217 4.53-0.65 1.513-0.433 2.82-1.017 3.92-1.75v0l-0.25 1.05v-11.5l0.75 0.7h-8.65c-0.433 0-0.8-0.15-1.1-0.45-0.3-0.3-0.45-0.65-0.45-1.05v0c0-0.467 0.15-0.833 0.45-1.1 0.3-0.267 0.667-0.4 1.1-0.4v0h9.55c0.433 0 0.793 0.14 1.08 0.42 0.28 0.287 0.42 0.647 0.42 1.08v0 12.05c0 0.267-0.067 0.517-0.2 0.75-0.133 0.233-0.317 0.433-0.55 0.6v0c-1.467 1-3.107 1.79-4.92 2.37-1.82 0.587-3.713 0.88-5.68 0.88zM73.05 4h13.25c2.8 0 4.993 0.757 6.58 2.27 1.58 1.52 2.37 3.63 2.37 6.33v0c0 1.4-0.3 2.733-0.9 4-0.6 1.267-1.483 2.29-2.65 3.07-1.167 0.787-2.617 1.23-4.35 1.33v0l-0.2-1c1.233 0 2.44 0.173 3.62 0.52 1.187 0.353 2.247 0.913 3.18 1.68 0.933 0.767 1.683 1.723 2.25 2.87 0.567 1.153 0.85 2.547 0.85 4.18v0c0 1.733-0.293 3.223-0.88 4.47-0.58 1.253-1.363 2.263-2.35 3.03-0.98 0.767-2.103 1.333-3.37 1.7-1.267 0.367-2.583 0.55-3.95 0.55v0h-13.45c-0.4 0-0.75-0.15-1.05-0.45-0.3-0.3-0.45-0.65-0.45-1.05v0-32c0-0.4 0.15-0.75 0.45-1.05 0.3-0.3 0.65-0.45 1.05-0.45zM85.9 6.95v0h-11.75l0.6-0.9v14.15l-0.55-0.75h11.7c1.733-0.033 3.19-0.6 4.37-1.7 1.187-1.1 1.78-2.733 1.78-4.9v0c0-1.833-0.533-3.277-1.6-4.33-1.067-1.047-2.583-1.57-4.55-1.57zM86.25 22.45v0h-11.75l0.25-0.3v14.35l-0.3-0.45h11.9c2.133 0 3.917-0.543 5.35-1.63 1.433-1.08 2.15-2.803 2.15-5.17v0c0-1.667-0.35-3-1.05-4-0.7-1-1.633-1.717-2.8-2.15-1.167-0.433-2.417-0.65-3.75-0.65zM135.3 21.5v0c0 2.633-0.407 5.04-1.22 7.22-0.82 2.187-1.98 4.087-3.48 5.7-1.5 1.62-3.273 2.87-5.32 3.75-2.053 0.887-4.297 1.33-6.73 1.33v0c-2.433 0-4.673-0.443-6.72-1.33-2.053-0.88-3.83-2.13-5.33-3.75-1.5-1.613-2.657-3.513-3.47-5.7-0.82-2.18-1.23-4.587-1.23-7.22v0c0-2.633 0.41-5.043 1.23-7.23 0.813-2.18 1.97-4.08 3.47-5.7 1.5-1.613 3.277-2.863 5.33-3.75 2.047-0.88 4.287-1.32 6.72-1.32v0c2.433 0 4.677 0.44 6.73 1.32 2.047 0.887 3.82 2.137 5.32 3.75 1.5 1.62 2.66 3.52 3.48 5.7 0.813 2.187 1.22 4.597 1.22 7.23zM132.1 21.5v0c0-2.967-0.573-5.577-1.72-7.83-1.153-2.247-2.747-4.003-4.78-5.27-2.033-1.267-4.383-1.9-7.05-1.9v0c-2.633 0-4.973 0.633-7.02 1.9-2.053 1.267-3.653 3.023-4.8 5.27-1.153 2.253-1.73 4.863-1.73 7.83v0c0 2.967 0.577 5.573 1.73 7.82 1.147 2.253 2.747 4.013 4.8 5.28 2.047 1.267 4.387 1.9 7.02 1.9v0c2.667 0 5.017-0.633 7.05-1.9 2.033-1.267 3.627-3.027 4.78-5.28 1.147-2.247 1.72-4.853 1.72-7.82zM168 4v0c0.433 0 0.777 0.133 1.03 0.4 0.247 0.267 0.37 0.6 0.37 1v0 32c0 0.5-0.157 0.89-0.47 1.17-0.32 0.287-0.68 0.43-1.08 0.43v0c-0.2 0-0.417-0.043-0.65-0.13-0.233-0.08-0.417-0.203-0.55-0.37v0l-22.3-30.05 0.85-0.45v29.65c0 0.367-0.133 0.683-0.4 0.95-0.267 0.267-0.6 0.4-1 0.4v0c-0.433 0-0.773-0.133-1.02-0.4-0.253-0.267-0.38-0.583-0.38-0.95v0-32.15c0-0.5 0.15-0.877 0.45-1.13 0.3-0.247 0.633-0.37 1-0.37v0c0.2 0 0.417 0.04 0.65 0.12 0.233 0.087 0.417 0.23 0.55 0.43v0l22.05 29.7-0.5 0.9v-29.75c0-0.4 0.143-0.733 0.43-1 0.28-0.267 0.603-0.4 0.97-0.4zM203.8 39.2v0c-0.433 0-0.8-0.183-1.1-0.55v0l-14.2-17.85 2.35-2.35 14.3 18.1c0.233 0.333 0.35 0.683 0.35 1.05v0c0 0.533-0.19 0.933-0.57 1.2-0.387 0.267-0.763 0.4-1.13 0.4zM203.25 4.1v0c0.4 0 0.743 0.15 1.03 0.45 0.28 0.3 0.42 0.633 0.42 1v0c0 0.4-0.15 0.75-0.45 1.05v0l-22.7 21.25-0.4-3.4 21-19.85c0.333-0.333 0.7-0.5 1.1-0.5zM180.35 39v0c-0.467 0-0.84-0.15-1.12-0.45-0.287-0.3-0.43-0.667-0.43-1.1v0-31.9c0-0.433 0.15-0.8 0.45-1.1 0.3-0.3 0.683-0.45 1.15-0.45v0c0.433 0 0.8 0.15 1.1 0.45 0.3 0.3 0.45 0.667 0.45 1.1v0 31.9c-0.033 0.433-0.2 0.8-0.5 1.1-0.3 0.3-0.667 0.45-1.1 0.45zM214.15 4v0c0.4 0 0.76 0.15 1.08 0.45 0.313 0.3 0.47 0.667 0.47 1.1v0 31.9c-0.033 0.433-0.207 0.8-0.52 1.1-0.32 0.3-0.68 0.45-1.08 0.45v0c-0.467 0-0.84-0.15-1.12-0.45-0.287-0.3-0.43-0.667-0.43-1.1v0-31.9c0-0.433 0.15-0.8 0.45-1.1 0.3-0.3 0.683-0.45 1.15-0.45zM237.6 4v0c0.467 0 0.843 0.15 1.13 0.45 0.28 0.3 0.42 0.667 0.42 1.1v0 31.9c-0.033 0.433-0.19 0.8-0.47 1.1-0.287 0.3-0.663 0.45-1.13 0.45v0c-0.433 0-0.8-0.15-1.1-0.45-0.3-0.3-0.45-0.667-0.45-1.1v0-31.9c0-0.433 0.16-0.8 0.48-1.1 0.313-0.3 0.687-0.45 1.12-0.45zM213.7 22.55l0.2-2.9h23.75l-0.05 2.9zM250.05 4v0h18.35c0.4 0 0.75 0.14 1.05 0.42 0.3 0.287 0.45 0.647 0.45 1.08v0c0 0.433-0.15 0.783-0.45 1.05-0.3 0.267-0.65 0.4-1.05 0.4v0h-17.2l0.5-0.85v14.05l-0.55-0.65h15c0.4 0 0.75 0.15 1.05 0.45 0.3 0.3 0.45 0.65 0.45 1.05v0c0 0.433-0.15 0.783-0.45 1.05-0.3 0.267-0.65 0.4-1.05 0.4v0h-14.9l0.45-0.5v14.4l-0.25-0.3h16.95c0.4 0 0.75 0.15 1.05 0.45 0.3 0.3 0.45 0.65 0.45 1.05v0c0 0.433-0.15 0.783-0.45 1.05-0.3 0.267-0.65 0.4-1.05 0.4v0h-18.35c-0.4 0-0.75-0.15-1.05-0.45-0.3-0.3-0.45-0.65-0.45-1.05v0-32c0-0.4 0.15-0.75 0.45-1.05 0.3-0.3 0.65-0.45 1.05-0.45zM286.6 39.5v0c-2.533 0.033-4.733-0.367-6.6-1.2-1.867-0.833-3.65-2.083-5.35-3.75v0c-0.167-0.133-0.307-0.3-0.42-0.5-0.12-0.2-0.18-0.433-0.18-0.7v0c0-0.4 0.157-0.767 0.47-1.1 0.32-0.333 0.68-0.5 1.08-0.5v0c0.4 0 0.767 0.167 1.1 0.5v0c1.3 1.4 2.777 2.467 4.43 3.2 1.647 0.733 3.42 1.1 5.32 1.1v0c1.6 0 3.027-0.25 4.28-0.75 1.247-0.5 2.237-1.217 2.97-2.15 0.733-0.933 1.1-2.017 1.1-3.25v0c0-1.533-0.417-2.777-1.25-3.73-0.833-0.947-1.933-1.73-3.3-2.35-1.367-0.613-2.883-1.17-4.55-1.67v0c-1.367-0.4-2.667-0.86-3.9-1.38-1.233-0.513-2.333-1.147-3.3-1.9-0.967-0.747-1.717-1.67-2.25-2.77-0.533-1.1-0.8-2.433-0.8-4v0c0-1.767 0.467-3.333 1.4-4.7 0.933-1.367 2.257-2.443 3.97-3.23 1.72-0.78 3.713-1.17 5.98-1.17v0c1.967 0 3.86 0.333 5.68 1 1.813 0.667 3.253 1.65 4.32 2.95v0c0.5 0.533 0.75 1.017 0.75 1.45v0c0 0.333-0.167 0.667-0.5 1-0.333 0.333-0.7 0.5-1.1 0.5v0c-0.333 0-0.617-0.117-0.85-0.35v0c-0.567-0.7-1.283-1.327-2.15-1.88-0.867-0.547-1.827-0.97-2.88-1.27-1.047-0.3-2.137-0.45-3.27-0.45v0c-1.567 0-2.977 0.24-4.23 0.72-1.247 0.487-2.227 1.18-2.94 2.08-0.72 0.9-1.08 1.983-1.08 3.25v0c0 1.4 0.4 2.55 1.2 3.45 0.8 0.9 1.85 1.64 3.15 2.22 1.3 0.587 2.683 1.13 4.15 1.63v0c1.433 0.4 2.81 0.86 4.13 1.38 1.313 0.513 2.48 1.153 3.5 1.92 1.013 0.767 1.81 1.733 2.39 2.9 0.587 1.167 0.88 2.633 0.88 4.4v0c0 1.7-0.483 3.233-1.45 4.6-0.967 1.367-2.293 2.45-3.98 3.25-1.68 0.8-3.653 1.217-5.92 1.25zM306.55 4v0h18.35c0.4 0 0.75 0.14 1.05 0.42 0.3 0.287 0.45 0.647 0.45 1.08v0c0 0.433-0.15 0.783-0.45 1.05-0.3 0.267-0.65 0.4-1.05 0.4v0h-17.2l0.5-0.85v14.05l-0.55-0.65h15c0.4 0 0.75 0.15 1.05 0.45 0.3 0.3 0.45 0.65 0.45 1.05v0c0 0.433-0.15 0.783-0.45 1.05-0.3 0.267-0.65 0.4-1.05 0.4v0h-14.9l0.45-0.5v14.4l-0.25-0.3h16.95c0.4 0 0.75 0.15 1.05 0.45 0.3 0.3 0.45 0.65 0.45 1.05v0c0 0.433-0.15 0.783-0.45 1.05-0.3 0.267-0.65 0.4-1.05 0.4v0h-18.35c-0.4 0-0.75-0.15-1.05-0.45-0.3-0.3-0.45-0.65-0.45-1.05v0-32c0-0.4 0.15-0.75 0.45-1.05 0.3-0.3 0.65-0.45 1.05-0.45z" fill="#ffffff" fill-rule="nonzero" stroke="none" stroke-width="1" stroke-linecap="butt" stroke-linejoin="miter" stroke-miterlimit="10" stroke-dasharray="" stroke-dashoffset="0" font-family="none" font-weight="none" font-size="none" text-anchor="none" style="mix-blend-mode: normal" data-fill-palette-color="primary" opacity="1"></path></g></svg></g></svg></g><g transform="matrix(1,0,0,1,0,105.27842874977945)"><svg viewBox="0 0 123.41967160112259 27.078250979587647" height="27.078250979587647" width="123.41967160112259"><g transform="matrix(1,0,0,1,0,0)"><svg width="123.41967160112259" viewBox="4.130000114440918 -37.5 217.19000244140625 47.65999984741211" height="27.078250979587647" data-palette-color="#ffffff"><path d="M13.75 0L6.32 0 6.37-3.81 13.75-3.81Q17.53-3.81 20.07-5.41 22.61-7.01 23.89-9.9 25.17-12.79 25.17-16.7L25.17-16.7 25.17-18.9Q25.17-22.97 23.89-25.83 22.61-28.69 20.14-30.2 17.68-31.71 14.16-31.71L14.16-31.71 6.18-31.71 6.18-35.55 14.16-35.55Q18.85-35.55 22.38-33.51 25.9-31.47 27.88-27.72 29.86-23.97 29.86-18.85L29.86-18.85 29.86-16.7Q29.86-11.55 27.88-7.81 25.9-4.08 22.29-2.04 18.68 0 13.75 0L13.75 0ZM8.86-35.55L8.86 0 4.13 0 4.13-35.55 8.86-35.55ZM47.21 0.49L47.21 0.49Q43.53 0.49 40.81-1.16 38.08-2.81 36.58-5.69 35.08-8.57 35.08-12.28L35.08-12.28 35.08-13.33Q35.08-17.63 36.73-20.67 38.38-23.71 41.03-25.31 43.67-26.9 46.63-26.9L46.63-26.9Q50.44-26.9 52.84-25.21 55.25-23.51 56.38-20.59 57.52-17.68 57.52-13.99L57.52-13.99 57.52-11.96 37.79-11.96 37.79-15.63 52.95-15.63 52.95-15.97Q52.85-17.72 52.24-19.4 51.63-21.07 50.29-22.16 48.95-23.24 46.63-23.24L46.63-23.24Q44.58-23.24 43-22.08 41.43-20.92 40.54-18.71 39.65-16.5 39.65-13.33L39.65-13.33 39.65-12.28Q39.65-9.77 40.57-7.7 41.5-5.64 43.26-4.41 45.02-3.17 47.46-3.17L47.46-3.17Q49.85-3.17 51.51-4.15 53.17-5.13 54.42-6.76L54.42-6.76 57.18-4.61Q55.91-2.66 53.53-1.09 51.14 0.49 47.21 0.49ZM70.5-4.05L77.68-26.42 82.34-26.42 72.87 0 69.79 0 70.5-4.05ZM64.5-26.42L71.92-3.93 72.46 0 69.4 0 59.83-26.42 64.5-26.42ZM97.67 0.49L97.67 0.49Q93.99 0.49 91.26-1.16 88.54-2.81 87.04-5.69 85.54-8.57 85.54-12.28L85.54-12.28 85.54-13.33Q85.54-17.63 87.19-20.67 88.84-23.71 91.48-25.31 94.13-26.9 97.09-26.9L97.09-26.9Q100.9-26.9 103.3-25.21 105.71-23.51 106.84-20.59 107.98-17.68 107.98-13.99L107.98-13.99 107.98-11.96 88.25-11.96 88.25-15.63 103.41-15.63 103.41-15.97Q103.31-17.72 102.7-19.4 102.09-21.07 100.75-22.16 99.41-23.24 97.09-23.24L97.09-23.24Q95.04-23.24 93.46-22.08 91.89-20.92 91-18.71 90.1-16.5 90.1-13.33L90.1-13.33 90.1-12.28Q90.1-9.77 91.03-7.7 91.96-5.64 93.72-4.41 95.48-3.17 97.92-3.17L97.92-3.17Q100.31-3.17 101.97-4.15 103.63-5.13 104.88-6.76L104.88-6.76 107.63-4.61Q106.36-2.66 103.98-1.09 101.6 0.49 97.67 0.49ZM118.18-37.5L118.18 0 113.61 0 113.61-37.5 118.18-37.5ZM124.21-12.92L124.21-13.48Q124.21-17.31 125.67-20.34 127.14-23.36 129.82-25.13 132.51-26.9 136.19-26.9L136.19-26.9Q139.93-26.9 142.64-25.13 145.35-23.36 146.8-20.34 148.25-17.31 148.25-13.48L148.25-13.48 148.25-12.92Q148.25-9.11 146.8-6.07 145.35-3.03 142.65-1.27 139.95 0.49 136.24 0.49L136.24 0.49Q132.53 0.49 129.83-1.27 127.14-3.03 125.67-6.07 124.21-9.11 124.21-12.92L124.21-12.92ZM128.77-13.48L128.77-12.92Q128.77-10.3 129.6-8.08 130.43-5.86 132.08-4.52 133.73-3.17 136.24-3.17L136.24-3.17Q138.73-3.17 140.38-4.52 142.03-5.86 142.86-8.08 143.69-10.3 143.69-12.92L143.69-12.92 143.69-13.48Q143.69-16.09 142.86-18.31 142.03-20.53 140.37-21.89 138.71-23.24 136.19-23.24L136.19-23.24Q133.73-23.24 132.07-21.89 130.41-20.53 129.59-18.31 128.77-16.09 128.77-13.48L128.77-13.48ZM158.48-21.34L158.48 10.16 153.92 10.16 153.92-26.42 158.07-26.42 158.48-21.34ZM176.25-13.43L176.25-12.92Q176.25-9.06 175.06-6.03 173.86-3 171.58-1.26 169.3 0.49 166.03 0.49L166.03 0.49Q162.63 0.49 160.34-0.98 158.04-2.44 156.75-5.14 155.45-7.84 155.06-11.52L155.06-11.52 155.06-14.36Q155.45-18.24 156.76-21.04 158.07-23.85 160.35-25.38 162.63-26.9 165.95-26.9L165.95-26.9Q169.27-26.9 171.57-25.22 173.86-23.54 175.06-20.5 176.25-17.46 176.25-13.43L176.25-13.43ZM171.69-12.92L171.69-13.43Q171.69-16.06 170.94-18.27 170.2-20.48 168.63-21.8 167.05-23.12 164.58-23.12L164.58-23.12Q162.9-23.12 161.65-22.53 160.41-21.95 159.53-20.96 158.65-19.97 158.1-18.71 157.55-17.46 157.28-16.11L157.28-16.11 157.28-9.74Q157.77-8.03 158.64-6.53 159.51-5.03 160.96-4.1 162.41-3.17 164.63-3.17L164.63-3.17Q167.07-3.17 168.64-4.52 170.2-5.86 170.94-8.07 171.69-10.28 171.69-12.92L171.69-12.92ZM192.98 0.49L192.98 0.49Q189.29 0.49 186.57-1.16 183.84-2.81 182.34-5.69 180.84-8.57 180.84-12.28L180.84-12.28 180.84-13.33Q180.84-17.63 182.49-20.67 184.14-23.71 186.79-25.31 189.44-26.9 192.39-26.9L192.39-26.9Q196.2-26.9 198.6-25.21 201.01-23.51 202.14-20.59 203.28-17.68 203.28-13.99L203.28-13.99 203.28-11.96 183.55-11.96 183.55-15.63 198.71-15.63 198.71-15.97Q198.62-17.72 198-19.4 197.39-21.07 196.05-22.16 194.71-23.24 192.39-23.24L192.39-23.24Q190.34-23.24 188.76-22.08 187.19-20.92 186.3-18.71 185.41-16.5 185.41-13.33L185.41-13.33 185.41-12.28Q185.41-9.77 186.34-7.7 187.26-5.64 189.02-4.41 190.78-3.17 193.22-3.17L193.22-3.17Q195.61-3.17 197.27-4.15 198.93-5.13 200.18-6.76L200.18-6.76 202.94-4.61Q201.67-2.66 199.29-1.09 196.91 0.49 192.98 0.49ZM213.09-22.27L213.09 0 208.52 0 208.52-26.42 212.97-26.42 213.09-22.27ZM221.32-26.56L221.32-22.39Q220.73-22.51 220.23-22.55 219.73-22.58 219.1-22.58L219.1-22.58Q217.02-22.58 215.59-21.73 214.16-20.87 213.38-19.37 212.6-17.87 212.41-15.94L212.41-15.94 211.11-15.21Q211.11-18.41 211.97-21.06 212.82-23.71 214.64-25.31 216.46-26.9 219.32-26.9L219.32-26.9Q219.78-26.9 220.43-26.79 221.07-26.68 221.32-26.56L221.32-26.56Z" opacity="1" transform="matrix(1,0,0,1,0,0)" fill="#ffffff" class="slogan-text-1" data-fill-palette-color="secondary" id="text-1"></path></svg></g></svg></g></svg></g></svg></g><g transform="matrix(1,0,0,1,0,0.33089169932341633)"><svg viewBox="0 0 99.11793200825207 132.3566797293671" height="132.3566797293671" width="99.11793200825207"><g><svg xmlns="http://www.w3.org/2000/svg" xmlns:xlink="http://www.w3.org/1999/xlink" version="1.0" x="0" y="0" viewBox="28.10818099975586 20.532867431640625 43.78427505493164 58.467132568359375" enable-background="new 0 0 100 100" xml:space="preserve" height="132.3566797293671" width="99.11793200825207" class="icon-icon-0" data-fill-palette-color="accent" id="icon-0"><g fill="#ffffff" data-fill-palette-color="accent"><g fill="#ffffff" data-fill-palette-color="accent"><path d="M71.867 57.151c-0.043-8.578-10.722-13.769-11.138-13.966-1.376-0.729-2.088-1.804-1.098-4.679 0.89-2.56 1.658-5.135 1.299-8.47-0.56-5.25-5.436-9.502-10.884-9.503-0.016 0-0.033 0-0.05 0C44.565 20.489 39.624 24.77 39.063 30.035c-0.359 3.338 0.41 5.912 1.298 8.468 0.99 2.876 0.277 3.952-1.059 4.662-0.454 0.217-11.134 5.408-11.176 13.986-0.04 7.961 0 20.724 0 20.852C28.128 78.554 28.575 79 29.126 79h41.762c0.552 0 0.999-0.447 1-0.999C71.888 77.874 71.907 65.111 71.867 57.151zM41.051 30.248c0.447-4.19 4.516-7.714 8.896-7.715 0.016 0 0.03 0 0.045 0 0.002 0 0.006 0 0.008 0 0.016-0.002 0.029 0 0.045 0 4.38 0 8.449 3.524 8.896 7.716 0.286 2.662-0.201 4.725-1.2 7.603-0.265 0.767-0.852 2.489-0.403 4.177-2.365 2.251-4.829 3.372-7.408 3.305-3.52-0.095-6.282-2.406-7.259-3.34 0.425-1.674-0.156-3.38-0.42-4.144C41.252 34.975 40.765 32.912 41.051 30.248zM69.889 77h-39.766c-0.008-3.168-0.03-13.185 0.003-19.839 0.035-7.319 9.938-12.143 10.075-12.21 0.633-0.335 1.112-0.724 1.489-1.139 1.407 1.256 4.359 3.411 8.166 3.521 0.101 0.003 0.202 0.004 0.303 0.004 2.859 0 5.603-1.184 8.176-3.503 0.38 0.414 0.861 0.801 1.495 1.137 0.101 0.047 10.001 4.854 10.037 12.19C69.9 63.814 69.893 73.829 69.889 77z" fill="#ffffff" data-fill-palette-color="accent"></path><path d="M48.996 36l4 0.015c0.002 0 0.003 0 0.004 0 0.551 0 0.998-0.445 1-0.996 0.002-0.553-0.444-1.002-0.996-1.004L50 34.003V29c0-0.552-0.447-1-1-1s-1 0.448-1 1v6C48 35.551 48.445 35.998 48.996 36z" fill="#ffffff" data-fill-palette-color="accent"></path><path d="M47.144 56.14c-0.352-0.425-0.98-0.488-1.409-0.136l-5.707 4.708c-0.23 0.19-0.364 0.474-0.363 0.774s0.135 0.583 0.367 0.772l5.496 4.496c0.186 0.152 0.409 0.226 0.632 0.226 0.29 0 0.577-0.125 0.776-0.366 0.35-0.428 0.286-1.058-0.142-1.407l-4.554-3.727 4.769-3.933C47.435 57.196 47.495 56.565 47.144 56.14z" fill="#ffffff" data-fill-palette-color="accent"></path><path d="M58.085 64.98h-6.765c-0.553 0-1 0.448-1 1s0.447 1 1 1h6.765c0.553 0 1-0.448 1-1S58.638 64.98 58.085 64.98z" fill="#ffffff" data-fill-palette-color="accent"></path></g></g></svg></g></svg></g></svg></g><defs></defs></svg><rect width="395.52" height="101.31674266829259" fill="none" stroke="none" visibility="hidden"></rect></g></svg></g></svg>